<svg id="visual" viewBox="0 0 960 300" width="960" height="300" xmlns="http://www.w3.org/2000/svg" xmlns:xlink="http://www.w3.org/1999/xlink" version="1.1"><rect x="0" y="0" width="960" height="300" fill="#0f0f10"></rect><path d="M0 86L22.8 90.8C45.7 95.7 91.3 105.3 137 104.8C182.7 104.3 228.3 93.7 274 94.7C319.7 95.7 365.3 108.3 411.2 110.5C457 112.7 503 104.3 548.8 102.2C594.7 100 640.3 104 686 108.5C731.7 113 777.3 118 823 113.7C868.7 109.3 914.3 95.7 937.2 88.8L960 82L960 0L937.2 0C914.3 0 868.7 0 823 0C777.3 0 731.7 0 686 0C640.3 0 594.7 0 548.8 0C503 0 457 0 411.2 0C365.3 0 319.7 0 274 0C228.3 0 182.7 0 137 0C91.3 0 45.7 0 22.8 0L0 0Z" fill="#202731"></path><path d="M0 74L22.8 78.3C45.7 82.7 91.3 91.3 137 89.5C182.7 87.7 228.3 75.3 274 70.7C319.7 66 365.3 69 411.2 74.7C457 80.3 503 88.7 548.8 90.5C594.7 92.3 640.3 87.7 686 83C731.7 78.3 777.3 73.7 823 75C868.7 76.3 914.3 83.7 937.2 87.3L960 91L960 0L937.2 0C914.3 0 868.7 0 823 0C777.3 0 731.7 0 686 0C640.3 0 594.7 0 548.8 0C503 0 457 0 411.2 0C365.3 0 319.7 0 274 0C228.3 0 182.7 0 137 0C91.3 0 45.7 0 22.8 0L0 0Z" fill="#3b3559"></path><path d="M0 59L22.8 61.7C45.7 64.3 91.3 69.7 137 73C182.7 76.3 228.3 77.7 274 77C319.7 76.3 365.3 73.7 411.2 70.5C457 67.3 503 63.7 548.8 63.7C594.7 63.7 640.3 67.3 686 69.3C731.7 71.3 777.3 71.7 823 70.3C868.7 69 914.3 66 937.2 64.5L960 63L960 0L937.2 0C914.3 0 868.7 0 823 0C777.3 0 731.7 0 686 0C640.3 0 594.7 0 548.8 0C503 0 457 0 411.2 0C365.3 0 319.7 0 274 0C228.3 0 182.7 0 137 0C91.3 0 45.7 0 22.8 0L0 0Z" fill="#77356c"></path><path d="M0 35L22.8 36.2C45.7 37.3 91.3 39.7 137 42.3C182.7 45 228.3 48 274 46C319.7 44 365.3 37 411.2 37.5C457 38 503 46 548.8 49.5C594.7 53 640.3 52 686 48.2C731.7 44.3 777.3 37.7 823 35.5C868.7 33.3 914.3 35.7 937.2 36.8L960 38L960 0L937.2 0C914.3 0 868.7 0 823 0C777.3 0 731.7 0 686 0C640.3 0 594.7 0 548.8 0C503 0 457 0 411.2 0C365.3 0 319.7 0 274 0C228.3 0 182.7 0 137 0C91.3 0 45.7 0 22.8 0L0 0Z" fill="#b62b5e"></path><path d="M0 34L22.8 33.2C45.7 32.3 91.3 30.7 137 31C182.7 31.3 228.3 33.7 274 32.2C319.7 30.7 365.3 25.3 411.2 22.2C457 19 503 18 548.8 18.8C594.7 19.7 640.3 22.3 686 22.3C731.7 22.3 777.3 19.7 823 17.7C868.7 15.7 914.3 14.3 937.2 13.7L960 13L960 0L937.2 0C914.3 0 868.7 0 823 0C777.3 0 731.7 0 686 0C640.3 0 594.7 0 548.8 0C503 0 457 0 411.2 0C365.3 0 319.7 0 274 0C228.3 0 182.7 0 137 0C91.3 0 45.7 0 22.8 0L0 0Z" fill="#dd3f31"></path></svg>